<?xml version="1.0" encoding="utf-8" ?>
<svg baseProfile="full" height="100%" version="1.1" viewBox="0 0 309.5 300.0" width="100%" xmlns="http://www.w3.org/2000/svg" xmlns:ev="http://www.w3.org/2001/xml-events" xmlns:xlink="http://www.w3.org/1999/xlink"><title>BuySignal</title><defs><style type="text/css"><![CDATA[.candle { fill:#FFFFFF;fill-rule:evenodd; }]]></style><style type="text/css"><![CDATA[.title { fill:#FFFFFF; }]]></style></defs><path class="candle" d="M23.00,8.75H15.25V62.50H0.00V116.25H15.25V144.75H23.00V116.25H38.25V62.50H23.00V8.75ZM30.50,70.25V108.50H7.75V70.25H30.50Z" transform="translate(54.625 0)" /><path class="candle" d="M77.00,54.75H69.25V85.50H54.00V116.25H69.25V193.25H77.00V116.25H92.25V85.50H77.00V54.75ZM84.50,93.25V108.50H61.75V93.25H84.50Z" transform="translate(54.625 0)" /><path class="candle" d="M131.00,0.00H123.25V85.50H108.00V154.75H123.25V177.75H131.00V154.75H146.25V85.50H131.00V0.00ZM138.50,93.25V146.75H115.75V93.25H138.50Z" transform="translate(54.625 0)" /><path class="candle" d="M185.50,19.50H177.25V46.75H162.00V144.50H177.25V167.00H185.50V144.50H200.75V46.75H185.50V19.50ZM169.75,136.50V54.75H192.50V136.50H169.75Z" transform="translate(54.625 0)" /><path class="title" d="M 15.2097,0.536205 A 10.7895,10.7895 0 0,1 22.2084,19.547 A 10.7766,10.7766 0 0,1 15.2097,38.5607 L 0,38.5607 L 0,0.536205 L 15.2097,0.536205 L 15.2097,0.536205 M 15.2097,17.0124 A 5.56338,5.56338 0 0,0 19.2685,15.3395 A 5.43528,5.43528 0 0,0 20.9404,11.3332 A 5.71472,5.71472 0 0,0 15.2097,5.60452 L 5.06812,5.60452 L 5.06812,17.0124 L 15.2097,17.0124 L 15.2097,17.0124 M 5.06812,33.4924 L 15.2097,33.4924 A 5.5625,5.5625 0 0,0 19.2685,31.8176 A 5.4348,5.4348 0 0,0 20.9404,27.8113 A 5.71355,5.71355 0 0,0 15.2097,22.0826 L 5.06812,22.0826 L 5.06812,33.4924 Z" transform="translate(0 228.707830067)" /><path class="title" d="M 38.6965,0.536205 L 38.6965,24.6182 A 8.8731,8.8731 0 1,0 56.4429,24.6182 L 56.4429,0.536205 L 61.5161,0.536205 L 61.5161,24.6182 A 13.9353,13.9353 0 0,1 47.5707,38.5607 A 14.0203,14.0203 0 0,1 33.6282,24.6182 L 33.6282,0.536205 L 38.6965,0.536205 Z" transform="translate(0 228.707830067)" /><path class="title" d="M 80.8459,38.5607 L 80.8459,27.1529 L 69.1346,0.536205 L 74.662,0.536205 L 83.3825,20.7676 L 92.2022,0.536205 L 97.7306,0.536205 L 85.9152,27.1529 L 85.9152,38.5607 L 80.8469,38.5607 Z" transform="translate(0 228.707830067)" /><path class="title" d="M 120.769,34.7568 L 124.928,31.7641 A 6.45702,6.45702 0 0,0 129.796,33.8941 A 6.03675,6.03675 0 0,0 134.509,31.1076 A 5.56104,5.56104 0 0,0 134.91,26.6958 A 5.37537,5.37537 0 0,0 132.178,23.3996 L 126.298,20.1063 A 10.1133,10.1133 0 0,1 121.022,13.7687 A 10.4062,10.4062 0 0,1 121.887,5.55103 A 10.1763,10.1763 0 0,1 130.657,0.0284977 A 10.3201,10.3201 0 0,1 140.136,4.28857 L 135.978,7.27937 A 6.45692,6.45692 0 0,0 131.11,5.14933 A 6.05037,6.05037 0 0,0 126.396,7.93686 A 5.50162,5.50162 0 0,0 125.989,12.2961 A 5.34191,5.34191 0 0,0 128.728,15.6449 L 134.611,18.9372 A 10.1081,10.1081 0 0,1 139.883,25.2757 A 10.4158,10.4158 0 0,1 139.023,33.4924 A 10.0948,10.0948 0 0,1 130.299,38.9683 A 10.3195,10.3195 0 0,1 120.769,34.7568 Z" transform="translate(0 228.707830067)" /><path class="title" d="M 152.465,0.536205 L 152.465,38.5607 L 147.4,38.5607 L 147.4,0.536205 L 152.465,0.536205 Z" transform="translate(0 228.707830067)" /><path class="title" d="M 178.582,17.0124 L 197.598,17.0124 C 197.598,23.9598 195.722,29.281 192.02,32.9847 A 19.0125,19.0125 0 1,1 192.02,6.11223 L 188.42,9.71286 A 13.9438,13.9438 0 1,0 188.42,29.385 A 13.4826,13.4826 0 0,0 192.273,22.0826 L 178.582,22.0826 L 178.582,17.0124 Z" transform="translate(0 228.707830067)" /><path class="title" d="M 210.34,0.536205 L 229.153,29.281 L 229.153,0.536205 L 234.224,0.536205 L 234.224,38.5607 L 229.153,38.5607 L 210.34,9.86556 L 210.34,38.5607 L 205.272,38.5607 L 205.272,0.536205 L 210.34,0.536205 Z" transform="translate(0 228.707830067)" /><path class="title" d="M 251.779,28.4212 L 247.371,38.5607 L 241.846,38.5607 L 258.319,0.536205 L 263.847,0.536205 L 280.326,38.5607 L 274.798,38.5607 L 270.439,28.4212 L 251.779,28.4212 L 251.779,28.4212 M 268.209,23.3509 L 261.111,6.92534 L 254.013,23.3509 L 268.209,23.3509 Z" transform="translate(0 228.707830067)" /><path class="title" d="M 309.5,38.5607 L 287.949,38.5607 L 287.949,0.536205 L 293.021,0.536205 L 293.021,33.4924 L 309.5,33.4924 L 309.5,38.5607 Z" transform="translate(0 228.707830067)" /><path class="title" d="M 4.94188,66.9456 L 3.05033,71.2923 L 0.679666,71.2923 L 7.74798,54.9844 L 10.1186,54.9844 L 17.1837,71.2923 L 14.8132,71.2923 L 12.9446,66.9456 L 4.94188,66.9456 L 4.94188,66.9456 M 11.9871,64.7699 L 8.9441,57.7242 L 5.89718,64.7699 L 11.9871,64.7699 Z" transform="translate(0 228.707830067)" /><path class="title" d="M 35.6376,66.4 L 31.2871,66.4 L 31.2871,71.2923 L 29.1114,71.2923 L 29.1114,54.9844 L 35.6376,54.9844 A 5.70772,5.70772 0 1,1 35.6376,66.4 L 35.6376,66.4 M 35.6376,57.1591 L 31.2871,57.1591 L 31.2871,64.2272 L 35.6376,64.2272 A 3.37061,3.37061 0 0,0 38.1382,63.1845 A 3.5237,3.5237 0 0,0 35.6376,57.1582 Z" transform="translate(0 228.707830067)" /><path class="title" d="M 47.8605,66.4 L 47.8605,71.2923 L 45.6857,71.2923 L 45.6857,54.9844 L 52.2101,54.9844 A 5.69731,5.69731 0 0,1 56.689,64.2272 A 5.60968,5.60968 0 0,1 53.6223,66.2269 L 57.6451,71.2923 L 54.841,71.2923 L 50.968,66.4 L 47.8605,66.4 L 47.8605,66.4 M 52.2101,57.1591 L 47.8605,57.1591 L 47.8605,64.2272 L 52.2101,64.2272 A 3.36682,3.36682 0 0,0 54.7097,63.1845 A 3.5237,3.5237 0 0,0 52.2101,57.1582 Z" transform="translate(0 228.707830067)" /><path class="title" d="M 71.5,54.9844 L 71.5,57.1582 L 64.4339,57.1582 L 64.4339,62.0504 L 69.3262,62.0504 L 69.3262,64.2262 L 64.4339,64.2262 L 64.4339,69.1155 L 71.5,69.1155 L 71.5,71.2913 L 62.2582,71.2913 L 62.2582,54.9834 L 71.5,54.9834 Z" transform="translate(0 228.707830067)" /><path class="title" d="M 81.8107,71.2923 L 75.833,71.2923 L 75.833,54.9844 L 81.8107,54.9844 A 8.15395,8.15395 0 0,1 81.8107,71.2923 L 81.8107,71.2923 M 86.0504,67.358 A 5.76277,5.76277 0 0,0 87.7933,63.1378 A 5.94747,5.94747 0 0,0 81.8107,57.1582 L 78.0068,57.1582 L 78.0068,69.1165 L 81.8107,69.1165 A 5.76393,5.76393 0 0,0 86.0504,67.358 Z" transform="translate(0 228.707830067)" /><path class="title" d="M 96.2532,54.9844 L 96.2532,71.2923 L 94.0794,71.2923 L 94.0794,54.9844 L 96.2541,54.9844 Z" transform="translate(0 228.707830067)" /><path class="title" d="M 104.314,67.358 A 5.94007,5.94007 0 0,0 112.751,67.358 L 114.292,68.9006 A 8.15424,8.15424 0 1,1 114.292,57.376 L 112.751,58.9215 A 5.96556,5.96556 0 1,0 104.314,67.358 Z" transform="translate(0 228.707830067)" /><path class="title" d="M 130.603,54.9844 L 130.603,57.1582 L 125.711,57.1582 L 125.711,71.2923 L 123.537,71.2923 L 123.537,57.1582 L 118.643,57.1582 L 118.643,54.9844 L 130.604,54.9844 Z" transform="translate(0 228.707830067)" /><path class="title" d="M 136.87,54.9844 L 136.87,71.2923 L 134.695,71.2923 L 134.695,54.9844 L 136.87,54.9844 Z" transform="translate(0 228.707830067)" /><path class="title" d="M 149.149,54.9844 A 8.1735,8.1735 0 1,1 143.389,57.377 A 7.8856,7.8856 0 0,1 149.149,54.9844 L 149.149,54.9844 M 149.149,69.1165 A 5.96857,5.96857 0 0,0 155.127,63.1378 A 5.93871,5.93871 0 0,0 149.149,57.1591 A 5.96546,5.96546 0 0,0 144.931,67.358 A 5.68184,5.68184 0 0,0 149.149,69.1165 Z" transform="translate(0 228.707830067)" /><path class="title" d="M 163.803,54.9844 L 171.866,67.3133 L 171.866,54.9844 L 174.044,54.9844 L 174.044,71.2923 L 171.866,71.2923 L 163.803,58.9857 L 163.803,71.2923 L 161.625,71.2923 L 161.625,54.9844 L 163.803,54.9844 Z" transform="translate(0 228.707830067)" /><path class="title" d="M 189.912,67.358 A 5.94007,5.94007 0 0,0 198.349,67.358 L 199.891,68.9006 A 8.15424,8.15424 0 1,1 199.891,57.376 L 198.349,58.9215 A 5.96556,5.96556 0 1,0 189.912,67.358 Z" transform="translate(0 228.707830067)" /><path class="title" d="M 212.398,54.9844 A 8.16124,8.16124 0 1,1 206.632,57.377 A 7.8858,7.8858 0 0,1 212.398,54.9844 L 212.398,54.9844 M 212.398,69.1165 A 5.97548,5.97548 0 0,0 218.376,63.1378 A 5.94542,5.94542 0 0,0 212.398,57.1591 A 5.97548,5.97548 0 0,0 206.417,63.1378 A 6.00602,6.00602 0 0,0 212.398,69.1165 Z" transform="translate(0 228.707830067)" /><path class="title" d="M 227.052,71.2923 L 224.878,71.2923 L 224.878,54.9844 L 227.052,54.9844 L 233.033,60.964 L 239.011,54.9844 L 241.186,54.9844 L 241.186,71.2923 L 239.011,71.2923 L 239.011,58.0724 L 233.033,64.0511 L 227.052,58.0724 L 227.052,71.2923 Z" transform="translate(0 228.707830067)" /><path class="title" d="M 252.038,66.4 L 247.687,66.4 L 247.687,71.2923 L 245.512,71.2923 L 245.512,54.9844 L 252.038,54.9844 A 5.70772,5.70772 0 0,1 252.038,66.4 L 252.038,66.4 M 252.038,57.1591 L 247.687,57.1591 L 247.687,64.2272 L 252.038,64.2272 A 3.38471,3.38471 0 0,0 254.539,63.1845 A 3.5237,3.5237 0 0,0 252.038,57.1582 Z" transform="translate(0 228.707830067)" /><path class="title" d="M 263.629,66.9456 L 261.739,71.2923 L 259.369,71.2923 L 266.439,54.9844 L 268.806,54.9844 L 275.873,71.2923 L 273.502,71.2923 L 271.63,66.9456 L 263.629,66.9456 L 263.629,66.9456 M 270.675,64.7699 L 267.633,57.7242 L 264.588,64.7699 L 270.675,64.7699 Z" transform="translate(0 228.707830067)" /><path class="title" d="M 282.371,54.9844 L 290.438,67.3133 L 290.438,54.9844 L 292.613,54.9844 L 292.613,71.2923 L 290.438,71.2923 L 282.371,58.9857 L 282.371,71.2923 L 280.197,71.2923 L 280.197,54.9844 L 282.371,54.9844 Z" transform="translate(0 228.707830067)" /><path class="title" d="M 301.97,71.2923 L 301.97,66.4 L 296.947,54.9844 L 299.315,54.9844 L 303.059,63.6621 L 306.838,54.9844 L 309.209,54.9844 L 304.141,66.4 L 304.141,71.2923 L 301.97,71.2923 Z" transform="translate(0 228.707830067)" /></svg>